<svg xmlns="http://www.w3.org/2000/svg" viewBox="0 0 512 512">
  <defs>
    <linearGradient id="bg" x1="0%" y1="0%" x2="100%" y2="100%">
      <stop offset="0%" style="stop-color:#3b82f6"/>
      <stop offset="100%" style="stop-color:#1d4ed8"/>
    </linearGradient>
  </defs>
  <rect width="512" height="512" rx="96" fill="url(#bg)"/>
  <!-- File icon -->
  <path d="M160 112h120l80 80v208a24 24 0 0 1-24 24H160a24 24 0 0 1-24-24V136a24 24 0 0 1 24-24z" fill="white" opacity="0.95"/>
  <path d="M280 112v80h80" fill="none" stroke="#3b82f6" stroke-width="8" stroke-linejoin="round"/>
  <!-- Share arrow -->
  <circle cx="380" cy="180" r="32" fill="#fbbf24"/>
  <path d="M380 160v40M365 175l15-15 15 15" stroke="white" stroke-width="6" stroke-linecap="round" stroke-linejoin="round" fill="none"/>
  <!-- Connection dots -->
  <circle cx="380" cy="300" r="20" fill="white" opacity="0.7"/>
  <circle cx="380" cy="380" r="20" fill="white" opacity="0.7"/>
  <line x1="360" y1="200" x2="380" y2="280" stroke="white" stroke-width="4" opacity="0.5"/>
  <line x1="360" y1="320" x2="380" y2="360" stroke="white" stroke-width="4" opacity="0.5"/>
</svg>
